<?xml version="1.0" encoding="utf-8"?>
<!-- Generator: Adobe Illustrator 28.2.0, SVG Export Plug-In . SVG Version: 6.00 Build 0)  -->
<svg version="1.2" baseProfile="tiny" id="Layer_1" xmlns="http://www.w3.org/2000/svg" xmlns:xlink="http://www.w3.org/1999/xlink"
	 x="0px" y="0px" viewBox="0 0 176 32" overflow="visible" xml:space="preserve">
<g>
	<path fill="#FFFFFF" d="M8.4,8.4c0-0.9,0.8-1.7,1.7-1.7l0,0c0.9,0,1.7,0.8,1.7,1.7v15.2c0,0.9-0.8,1.7-1.7,1.7l0,0
		c-0.9,0-1.7-0.8-1.7-1.7V8.4z"/>
</g>
<image width="5" height="13" xlink:href="309B15D5.png"  transform="matrix(1 0 0 1 14 13)">
</image>
<image width="4" height="17" xlink:href="309B15D7.png"  transform="matrix(1 0 0 1 21 9)">
</image>
<image width="96" height="96" xlink:href="309B15D2.png"  transform="matrix(0.3491 0 0 0.3491 0 -0.6032)">
</image>
<text transform="matrix(1.5993 0 0 1 38.7914 22.6553)" font-family="'Calibri-Bold'" font-size="32.431px">F</text>
<text transform="matrix(1.5993 0 0 1 62.5976 22.6553)" font-family="'Calibri-Bold'" font-size="32.431px">M</text>
<text transform="matrix(1.5993 0 0 1 107.9306 22.6553)" font-family="'Calibri-Bold'" font-size="32.431px">B</text>
<text transform="matrix(1.5993 0 0 1 137.0038 22.6553)" font-family="'Calibri-Bold'" font-size="32.431px">O</text>
<text transform="matrix(1.5993 0 0 1 172.08 22.6553)" font-family="'Calibri-Bold'" font-size="32.431px"> </text>
<text transform="matrix(1.5993 0 0 1 38.7914 30.2227)" font-family="'Calibri-Bold'" font-size="6.306px">F</text>
<text transform="matrix(1.5993 0 0 1 43.4203 30.2227)" font-family="'Calibri-Bold'" font-size="6.306px">u</text>
<text transform="matrix(1.5993 0 0 1 48.8325 30.2227)" font-family="'Calibri-Bold'" font-size="6.306px">n</text>
<text transform="matrix(1.5993 0 0 1 54.2441 30.2227)" font-family="'Calibri-Bold'" font-size="6.306px">d</text>
<text transform="matrix(1.5993 0 0 1 59.6562 30.2227)" font-family="'Calibri-Bold'" font-size="6.306px"> </text>
<text transform="matrix(1.5993 0 0 1 61.936 30.2227)" font-family="'Calibri-Bold'" font-size="6.306px">M</text>
<text transform="matrix(1.5993 0 0 1 70.7509 30.2227)" font-family="'Calibri-Bold'" font-size="6.306px">a</text>
<text transform="matrix(1.5993 0 0 1 75.7294 30.2227)" font-family="'Calibri-Bold'" font-size="6.306px">n</text>
<text transform="matrix(1.5993 0 0 1 81.1415 30.2227)" font-family="'Calibri-Bold'" font-size="6.306px">a</text>
<text transform="matrix(1.5993 0 0 1 86.1201 30.2227)" font-family="'Calibri-Bold'" font-size="6.306px">g</text>
<text transform="matrix(1.5993 0 0 1 90.7934 30.2227)" font-family="'Calibri-Bold'" font-size="6.306px">e</text>
<text transform="matrix(1.5993 0 0 1 95.8701 30.2227)" font-family="'Calibri-Bold'" font-size="6.306px">m</text>
<text transform="matrix(1.5993 0 0 1 104.0742 30.2227)" font-family="'Calibri-Bold'" font-size="6.306px">e</text>
<text transform="matrix(1.5993 0 0 1 109.1513 30.2227)" font-family="'Calibri-Bold'" font-size="6.306px">n</text>
<text transform="matrix(1.5993 0 0 1 114.4697 30.2227)" font-family="'Calibri-Bold'" font-size="6.306px">t</text>
<text transform="matrix(1.5993 0 0 1 117.9658 30.2227)" font-family="'Calibri-Bold'" font-size="6.306px"> </text>
<text transform="matrix(1.5993 0 0 1 120.246 30.2227)" font-family="'Calibri-Bold'" font-size="6.306px">B</text>
<text transform="matrix(1.5993 0 0 1 125.8994 30.2227)" font-family="'Calibri-Bold'" font-size="6.306px">a</text>
<text transform="matrix(1.5993 0 0 1 130.8779 30.2227)" font-family="'Calibri-Bold'" font-size="6.306px">c</text>
<text transform="matrix(1.5993 0 0 1 135.0986 30.2227)" font-family="'Calibri-Bold'" font-size="6.306px">k</text>
<text transform="matrix(1.5993 0 0 1 139.9384 30.2227)" font-family="'Calibri-Bold'" font-size="6.306px"> </text>
<text transform="matrix(1.5993 0 0 1 142.2187 30.2227)" font-family="'Calibri-Bold'" font-size="6.306px">O</text>
<text transform="matrix(1.5993 0 0 1 149.039 30.2227)" font-family="'Calibri-Bold'" font-size="6.306px">f</text>
<text transform="matrix(1.5993 0 0 1 157.499 30.2227)" font-family="'Calibri-Bold'" font-size="6.306px">f</text>
<text transform="matrix(1.5993 0 0 1 161.7197 30.2227)" font-family="'Calibri-Bold'" font-size="6.306px">i</text>
<text transform="matrix(1.5993 0 0 1 1527063.5 -8175.2871)" font-family="'Calibri-Bold'" font-size="6.306px">c</text>
<text transform="matrix(1.5993 0 0 1 0 -8175.2871)" font-family="'Calibri-Bold'" font-size="6.306px">e</text>
</svg>
